<?xml version="1.0" encoding="utf-8"?>
<!-- Generator: Adobe Illustrator 23.1.0, SVG Export Plug-In . SVG Version: 6.00 Build 0)  -->
<svg version="1.1" id="Capa_1" xmlns="http://www.w3.org/2000/svg" xmlns:xlink="http://www.w3.org/1999/xlink" x="0px" y="0px"
	 viewBox="0 0 492.7 492.7" style="enable-background:new 0 0 492.7 492.7;" xml:space="preserve">
<style type="text/css">
	.st0{fill:#F7CE23;}
</style>
<g>
	<path class="st0" d="M33,369.5c2.2,3.9,6.4,6.2,10.8,6.2c0,0,0,0,0,0l128-0.5l63.6,111.1c2.2,3.9,6.4,6.3,10.8,6.3
		c4.5,0,8.6-2.4,10.8-6.3l63.6-111.1l128,0.5c0,0,0,0,0,0c4.5,0,8.6-2.4,10.8-6.2c2.2-3.9,2.2-8.7,0-12.5l-64.4-110.6l64.4-110.6
		c2.3-3.9,2.3-8.7,0-12.5c-2.2-3.9-6.4-6.2-10.8-6.2c0,0,0,0,0,0l-128,0.5L257.2,6.3c-2.2-3.9-6.4-6.3-10.8-6.3s-8.6,2.4-10.8,6.3
		l-63.6,111.1l-128-0.5c0,0,0,0,0,0c-4.5,0-8.6,2.4-10.8,6.2c-2.2,3.9-2.2,8.7,0,12.5l64.4,110.6L33,357
		C30.8,360.8,30.8,365.6,33,369.5z"/>
</g>
</svg>
